<svg xmlns="http://www.w3.org/2000/svg" viewBox="0 0 64 64" role="img" aria-labelledby="title">
  <title>Bill Sun favicon</title>
  <rect width="64" height="64" rx="16" fill="#0f172a"/>
  <path d="M24 16h11.5c7.8 0 12.7 4.05 12.7 10.22 0 4.24-2.17 7.18-5.95 8.4 4.62 1.12 7.28 4.48 7.28 9.75C49.5 51.1 44.16 56 35.6 56H24V16Zm8.03 6.83v8.36h3.22c3.65 0 5.68-1.54 5.68-4.27 0-2.73-2.03-4.1-5.68-4.1h-3.22Zm0 14.65v10.7h4.2c3.96 0 6.2-1.82 6.2-5.26 0-3.5-2.24-5.44-6.2-5.44h-4.2Z" fill="#f6efe5"/>
  <path d="M45 14 20 50" fill="none" stroke="#c99963" stroke-linecap="round" stroke-width="4"/>
</svg>
